<?xml version="1.0" encoding="utf-8"?>
<!-- Generator: Adobe Illustrator 24.2.1, SVG Export Plug-In . SVG Version: 6.00 Build 0)  -->
<svg version="1.1" id="Layer_1" xmlns="http://www.w3.org/2000/svg" xmlns:xlink="http://www.w3.org/1999/xlink" x="0px" y="0px"
	 viewBox="0 0 145.9 134.9" style="enable-background:new 0 0 145.9 134.9;" xml:space="preserve">
<style type="text/css">
	.st0{fill:#D31D55;}
	.st1{fill:#E1136E;}
	.st2{fill:#A01C3D;}
</style>
<path class="st0" d="M51.4,63.9L2.8,1.8L3,1.3l63.6,7.6C61.6,27.3,56.6,45.4,51.4,63.9z"/>
<path class="st1" d="M53.9,64.4L69.2,9.1l46.4,64.4l-0.2,0.5L53.9,64.4z"/>
<path class="st0" d="M54.1,67.1l58.8,9.4v0.6l-50.7,25.3C59.5,90.6,56.9,79.1,54.1,67.1z"/>
<path class="st2" d="M32.1,134c6.3-22.2,12.6-44.4,19.1-67c0.3,0.5,0.5,1,0.7,1.5c3,13.6,6.1,27.1,9.1,40.6c0.4,1.1-0.1,2.4-1.1,3
	c-8.7,7-17.4,14-26.1,21.1c-0.4,0.3-0.8,0.6-1.3,0.9L32.1,134z"/>
<path class="st0" d="M99.9,47.8l30.5-5.5l-11.6,31.6C112.4,65.1,106.3,56.7,99.9,47.8z"/>
<path class="st1" d="M70.3,101.1L115.9,78l0.4,0.3c-0.6,1.7-1.1,3.5-1.7,5.2c-0.1,0.4-0.7,0.7-1.1,0.8l-42.5,17c-0.1,0-0.2,0-0.3,0
	L70.3,101.1z"/>
<path class="st1" d="M144.9,55.6H128c1.6-4.4,3.2-8.5,4.5-12.2l12.6,11.7L144.9,55.6z"/>
<path class="st2" d="M26.8,37.1L0.9,12.7l0.2-0.5c2.2,0,4.4,0,6.6,0c0.3,0,0.7,0.4,1,0.7l18.2,23.3c0.1,0.2,0.2,0.4,0.3,0.6
	L26.8,37.1z"/>
</svg>
