<?xml version="1.0" encoding="utf-8"?>
<!-- Generator: Adobe Illustrator 24.2.1, SVG Export Plug-In . SVG Version: 6.00 Build 0)  -->
<svg version="1.1" id="Layer_1" xmlns="http://www.w3.org/2000/svg" xmlns:xlink="http://www.w3.org/1999/xlink" x="0px" y="0px"
	 viewBox="0 0 130.5 126" style="enable-background:new 0 0 130.5 126;" xml:space="preserve">
<style type="text/css">
	.st0{fill:#EA272A;}
	.st1{fill:#F89624;}
</style>
<path class="st0" d="M117.5,67.3c0.1,1.6,0,3.1-0.2,4.7c-0.5,6.6-2.1,13.1-4.9,19.2c-1,2.4-2.2,4.7-3.7,6.9
	c-10.4,16.3-28.7,27.1-49.5,27.1c-8.6,0-17.1-1.9-24.7-5.4C14.6,110.6,0.8,90.4,0.8,67.3s13.4-42.6,32.4-51.9c-1.6,2-3,4-4.2,6.2
	c0,0.3-0.3,0.3-0.3,0.5c-0.7,0.7-1.5,1.2-2.2,2c-0.8,0.9-1.7,1.7-2.7,2.4l-1,1c-0.3,0.4-0.6,0.7-1,1c-0.5,0.7-1.2,1.5-1.7,2.2
	c-2.5,3.2-4.5,6.7-5.9,10.3c-0.3,0.2-0.3,0.7-0.5,1c-0.3,0.2-0.2,1-0.5,1.2c-0.2,0.2-0.3,0.5-0.3,0.7c-0.2,0.7-0.5,1.2-0.7,2
	c-0.3,0.7-0.3,1-0.5,1.2s-0.3,0.5-0.3,0.7s-0.3,1-0.3,1.5l-0.7,4.5c0,0.4,0,0.8-0.2,1.2v6c0,15.8,7.2,30.1,18.8,39.2
	c8.7,7.3,20.1,11.4,32.2,11.6c10.9,0,21.3-3.4,29.6-9.6c6.3-4.6,11.3-10.3,14.8-16.8c0.5-1,1-1.7,1.5-2.7c3.1-6.3,4.7-13.1,4.7-20
	V61c0-1.6,0-3.3-0.3-4.9l0.3,0.3c0.7,0.7,1.5,1.2,2.1,2c0.7-1.2,1.5-2.2,2.1-3.5c0.5,2.3,0.8,4.6,1,6.9
	C117.3,63.6,117.4,65.4,117.5,67.3z"/>
<path class="st1" d="M66.1,20.7L55.2,0.8c-18,8.1-30.4,26.1-30.4,47.1c-0.1,10,2.9,19.9,8.6,28.6c-0.4-2.8-0.6-5.6-0.5-8.4
	C33.2,46.7,46.8,28.4,66.1,20.7z"/>
<path class="st0" d="M74.7,30.6c7.5-1.9,15.3-2.2,23-1l-0.3-8.9L96.9,2.9c-2.1-0.3-4.2-0.5-6.3-0.5c-9.7,0.1-19,3-26.5,8.4L70,21.7
	c-10.9,4-19.7,11.4-24.7,20.7c-2.9,4.9-4.7,10.3-5.4,15.8c1.4-2.8,3.2-5.5,5.2-8C52,40.8,62.5,33.9,74.7,30.6z"/>
<path class="st1" d="M100.7,20.5l0.5,12.6c-4.2-1.3-8.7-2-13.1-2c-8.6,0.1-16.9,2.4-24,6.7c-9.4,5.9-16.2,14.4-19.3,24.1
	c3.3-4.7,7.7-8.8,12.7-12.1c7.2-4.8,16-7.4,25-7.4c6.7,0,13.4,1.5,19.3,4.3c4.5,2,8.6,4.8,11.9,8.1l6.9-10.4l8.9-13.6
	C121.8,24.4,111.5,20.6,100.7,20.5z"/>
<path class="st1" d="M111.8,61.5v1.6c-0.1,6.8-1.7,13.6-4.7,19.9c-0.5,1-1,1.7-1.5,2.7c-3.5,6.5-8.5,12.2-14.8,16.8
	c-8.3,6.1-18.8,9.5-29.6,9.6c-12,0-23.6-4.2-32.2-11.6C16.9,90.2,10.1,76.1,10.2,61.3v-5.9c0-0.4,0-0.8,0.2-1.2l0.7-4.4
	c0-0.5,0.3-1,0.3-1.5s0.3-0.5,0.3-0.7c0-0.4,0.2-0.9,0.5-1.2c0.3-0.7,0.5-1.5,0.7-2s0.3-0.5,0.3-0.7c0.1-0.4,0.2-0.9,0.5-1.2
	c0.2-0.2,0.3-0.7,0.5-1c1.6-3.6,3.5-7.1,5.9-10.3c0.5-0.7,1.2-1.5,1.7-2.2c0.3-0.2,0.5-0.7,1-1c0.5-0.2,0.3-0.5,0.5-0.5
	c0.3,0,0.2-0.5,0.5-0.5c0.8-0.9,1.7-1.8,2.7-2.5c0.7-0.7,1.5-1.2,2.2-2c0,0.2-0.3,0.2-0.3,0.5c0,0.2-0.1,0.3-0.2,0.5
	C25.1,30,23.1,36.9,22.5,44c-0.3,2.1-0.4,4.2-0.4,6.3c0,26.5,15.6,47.9,34.9,47.9h2c2.8-0.1,5.5-0.4,8.2-1
	C80.3,93.7,90,81.7,90,67.7V67c-0.1-7.8-3.4-15.4-9.4-21.2c3.9,0.1,7.9,0.6,11.6,1.7c7.2,1.9,13.8,5.2,19.3,9.6l0.3,0.2
	C111.7,58.7,111.7,60.1,111.8,61.5z"/>
<path class="st1" d="M111.8,61.5v1.6c-0.2,7-1.8,13.9-4.9,20.3c-0.5,1-1,1.7-1.5,2.7c-3.6,6.5-8.8,12.2-15.1,16.8
	c-8.3,6.2-18.9,9.7-29.9,9.6c-12.1-0.1-23.7-4.3-32.4-11.6C15.8,90.6,9,76.3,9.2,61.5C8.9,46.6,15.7,32.3,28,22l0.5-0.5
	c0,0.3-0.2,0.3-0.2,0.5S28,22.2,28,22.5C16,32.7,9.4,46.8,9.7,61.5c-0.3,14.7,6.5,28.9,18.6,39.2C37,107.9,48.5,112,60.5,112
	c10.9,0,21.4-3.4,29.6-9.6c6.3-4.6,11.3-10.3,14.8-16.8c0.5-0.9,0.9-1.8,1.3-2.7c3.1-6.3,4.8-13.1,4.9-20v-1.7c0-1.6,0-3.3-0.3-4.9
	V56l0.5,0.5C111.6,58.2,111.8,59.8,111.8,61.5z"/>
</svg>
