<?xml version="1.0" encoding="UTF-8"?>
<svg version="1.1" xmlns="http://www.w3.org/2000/svg" width="300" height="300">
<path d="M0 0 C1.29654555 0.36705114 2.59342077 0.73293979 3.890625 1.09765625 C13.81902615 4.11090557 24.69279042 8.31481101 33.11132812 14.56835938 C40.94060614 20.13804829 48.67537498 19.76852611 57.875 19.625 C75.29700596 19.43534176 89.88223995 22.4652515 103 35 C112.01733402 44.9871617 118.32883144 57.11863741 118.26742554 70.74638367 C118.27195665 71.49527149 118.27648776 72.2441593 118.28115618 73.01574069 C118.29375044 75.50884871 118.29218304 78.00173687 118.29052734 80.49487305 C118.2965158 82.28922301 118.30332208 84.0835704 118.31088257 85.87791443 C118.32851982 90.74180072 118.33323706 95.60561659 118.33451414 100.46953177 C118.33593786 103.51248448 118.3402117 106.55541941 118.34550858 109.59836769 C118.36400301 120.22631589 118.37218013 130.85421398 118.37060547 141.48217773 C118.369405 151.36886435 118.39049025 161.25533234 118.4220928 171.14196366 C118.44830085 179.64584171 118.45897083 188.14964856 118.45769465 196.65356666 C118.45718625 201.7255048 118.46280171 206.79724865 118.48405075 211.86914635 C118.50350894 216.64385093 118.50350603 221.41817746 118.48901749 226.19289589 C118.4869375 227.93749167 118.49158155 229.68211159 118.5037384 231.42666626 C118.58211236 243.46073129 117.62009538 254.12702522 110.875 264.5625 C110.37742187 265.34753906 109.87984375 266.13257813 109.3671875 266.94140625 C108.24654672 268.62877108 107.12359804 270.31460294 106 272 C105.34 272 104.68 272 104 272 C103.34 273.32 102.68 274.64 102 276 C101.34 276 100.68 276 100 276 C100 276.66 100 277.32 100 278 C98.05078125 279.55078125 98.05078125 279.55078125 95.3125 281.3125 C94.44238281 281.88613281 93.57226562 282.45976562 92.67578125 283.05078125 C80.871609 289.63131674 70.86308283 290.73073713 57.65625 290.64697266 C55.84292731 290.65376214 54.02961153 290.66267268 52.21630859 290.67352295 C47.3277571 290.6961648 42.43973784 290.68754289 37.55117798 290.67162752 C32.41366231 290.65888968 27.27618951 290.67073039 22.13867188 290.67855835 C13.51424046 290.68763207 4.89002375 290.67572694 -3.734375 290.65185547 C-13.67805439 290.62464865 -23.62122102 290.63346443 -33.564888 290.6609875 C-42.13178111 290.68374263 -50.69852067 290.68684742 -59.26543427 290.67379415 C-64.36918023 290.66603476 -69.47268589 290.66486071 -74.57641602 290.68147659 C-79.3767677 290.69601566 -84.17646405 290.68572878 -88.97674561 290.65700531 C-90.72897254 290.65044459 -92.4812555 290.65220526 -94.23345947 290.66331863 C-107.34454486 290.73875213 -117.79249572 288.88559786 -129.0625 281.5 C-129.91972656 280.9534375 -130.77695313 280.406875 -131.66015625 279.84375 C-134.24848623 277.80419783 -135.98848688 275.60359593 -138 273 C-139.24523437 271.82050781 -139.24523437 271.82050781 -140.515625 270.6171875 C-143.33098243 267.65132354 -144.93990061 264.78524523 -146.75 261.125 C-147.63945312 259.36542969 -147.63945312 259.36542969 -148.546875 257.5703125 C-150.00657619 253.98384238 -150.48386293 250.81367945 -151 247 C-151.66 246.67 -152.32 246.34 -153 246 C-152.97381592 245.03698975 -152.94763184 244.07397949 -152.9206543 243.08178711 C-152.8296404 239.48323113 -152.77256777 235.88477525 -152.7253418 232.28540039 C-152.70031311 230.73249155 -152.66627869 229.17969916 -152.62280273 227.62719727 C-151.916807 216.76590673 -151.916807 216.76590673 -156.64331055 207.48120117 C-159.19954973 204.69036023 -160.51050666 201.10427957 -162.0625 197.6875 C-162.58009888 196.56601562 -162.58009888 196.56601562 -163.1081543 195.421875 C-165.58488323 190.01512127 -167.94439592 184.58237579 -170 179 C-170.26296875 178.32710937 -170.5259375 177.65421875 -170.796875 176.9609375 C-182.68290824 144.57756122 -178.03702442 105.80169224 -164.1875 74.875 C-159.80275595 65.49178238 -154.31408986 57.18512012 -148 49 C-147.26136719 48.03707031 -146.52273437 47.07414062 -145.76171875 46.08203125 C-142.39785543 41.7932639 -139.00455723 37.71154085 -135 34 C-134.43667969 33.45472656 -133.87335938 32.90945312 -133.29296875 32.34765625 C-116.83273636 16.95749633 -97.45773126 6.50086164 -76 0 C-75.01628418 -0.31759277 -75.01628418 -0.31759277 -74.01269531 -0.64160156 C-51.88395074 -7.5506752 -22.02244114 -6.91468288 0 0 Z " fill="#E31D25" transform="translate(179,7)"/>
<path d="M0 0 C1.62799785 1.28282109 3.23324278 2.59513136 4.8125 3.9375 C5.6684375 4.65679687 6.524375 5.37609375 7.40625 6.1171875 C25.60748827 21.96103647 40.26073426 44.436296 42.8125 68.9375 C43.11757252 74.14747663 43.22390296 79.34550677 43.25 84.5625 C43.26023193 85.84842041 43.27046387 87.13434082 43.28100586 88.45922852 C43.1623328 101.47757989 41.01966513 113.6546958 35.6875 125.5625 C35.29498047 126.45493408 34.90246094 127.34736816 34.49804688 128.2668457 C22.9651021 153.67565206 1.56980845 172.84817977 -24.33984375 182.65625 C-53.19938885 192.616558 -80.72362977 190.41518711 -108.1015625 177.5703125 C-132.76551823 164.98956275 -150.54947223 142.47079754 -159.5625 116.5625 C-160.16281641 114.70544642 -160.69702983 112.82653859 -161.1875 110.9375 C-161.36192627 110.27258545 -161.53635254 109.6076709 -161.71606445 108.92260742 C-163.55849828 101.01951429 -163.62955245 93.07319223 -163.625 85 C-163.62540283 84.2689505 -163.62580566 83.537901 -163.6262207 82.78469849 C-163.56684086 64.06750509 -159.41979217 49.16048014 -150.1875 32.9375 C-149.64351562 31.95394531 -149.09953125 30.97039062 -148.5390625 29.95703125 C-136.51396746 9.63168769 -115.63851434 -6.81480018 -93.1875 -14.0625 C-92.18460937 -14.43246094 -91.18171875 -14.80242188 -90.1484375 -15.18359375 C-60.27963745 -24.58673451 -25.25344255 -17.79868338 0 0 Z " fill="#FEFDFD" transform="translate(222.1875,77.0625)"/>
<path d="M0 0 C1.29654555 0.36705114 2.59342077 0.73293979 3.890625 1.09765625 C13.81902615 4.11090557 24.69279042 8.31481101 33.11132812 14.56835938 C40.94060614 20.13804829 48.67537498 19.76852611 57.875 19.625 C75.29700596 19.43534176 89.88223995 22.4652515 103 35 C112.01733402 44.9871617 118.32883144 57.11863741 118.26742554 70.74638367 C118.27195665 71.49527149 118.27648776 72.2441593 118.28115618 73.01574069 C118.29375044 75.50884871 118.29218304 78.00173687 118.29052734 80.49487305 C118.2965158 82.28922301 118.30332208 84.0835704 118.31088257 85.87791443 C118.32851982 90.74180072 118.33323706 95.60561659 118.33451414 100.46953177 C118.33593786 103.51248448 118.3402117 106.55541941 118.34550858 109.59836769 C118.36400301 120.22631589 118.37218013 130.85421398 118.37060547 141.48217773 C118.369405 151.36886435 118.39049025 161.25533234 118.4220928 171.14196366 C118.44830085 179.64584171 118.45897083 188.14964856 118.45769465 196.65356666 C118.45718625 201.7255048 118.46280171 206.79724865 118.48405075 211.86914635 C118.50350894 216.64385093 118.50350603 221.41817746 118.48901749 226.19289589 C118.4869375 227.93749167 118.49158155 229.68211159 118.5037384 231.42666626 C118.58211236 243.46073129 117.62009538 254.12702522 110.875 264.5625 C110.37742187 265.34753906 109.87984375 266.13257813 109.3671875 266.94140625 C108.24654672 268.62877108 107.12359804 270.31460294 106 272 C105.34 272 104.68 272 104 272 C103.34 273.32 102.68 274.64 102 276 C101.34 276 100.68 276 100 276 C100 276.66 100 277.32 100 278 C98.05078125 279.55078125 98.05078125 279.55078125 95.3125 281.3125 C94.44238281 281.88613281 93.57226562 282.45976562 92.67578125 283.05078125 C80.871609 289.63131674 70.86308283 290.73073713 57.65625 290.64697266 C55.84292731 290.65376214 54.02961153 290.66267268 52.21630859 290.67352295 C47.3277571 290.6961648 42.43973784 290.68754289 37.55117798 290.67162752 C32.41366231 290.65888968 27.27618951 290.67073039 22.13867188 290.67855835 C13.51424046 290.68763207 4.89002375 290.67572694 -3.734375 290.65185547 C-13.67805439 290.62464865 -23.62122102 290.63346443 -33.564888 290.6609875 C-42.13178111 290.68374263 -50.69852067 290.68684742 -59.26543427 290.67379415 C-64.36918023 290.66603476 -69.47268589 290.66486071 -74.57641602 290.68147659 C-79.3767677 290.69601566 -84.17646405 290.68572878 -88.97674561 290.65700531 C-90.72897254 290.65044459 -92.4812555 290.65220526 -94.23345947 290.66331863 C-107.34454486 290.73875213 -117.79249572 288.88559786 -129.0625 281.5 C-129.91972656 280.9534375 -130.77695313 280.406875 -131.66015625 279.84375 C-134.24848623 277.80419783 -135.98848688 275.60359593 -138 273 C-139.24523437 271.82050781 -139.24523437 271.82050781 -140.515625 270.6171875 C-143.33098243 267.65132354 -144.93990061 264.78524523 -146.75 261.125 C-147.63945312 259.36542969 -147.63945312 259.36542969 -148.546875 257.5703125 C-150.00657619 253.98384238 -150.48386293 250.81367945 -151 247 C-151.66 246.67 -152.32 246.34 -153 246 C-152.97381592 245.03698975 -152.94763184 244.07397949 -152.9206543 243.08178711 C-152.8296404 239.48323113 -152.77256777 235.88477525 -152.7253418 232.28540039 C-152.70031311 230.73249155 -152.66627869 229.17969916 -152.62280273 227.62719727 C-151.916807 216.76590673 -151.916807 216.76590673 -156.64331055 207.48120117 C-159.19954973 204.69036023 -160.51050666 201.10427957 -162.0625 197.6875 C-162.58009888 196.56601562 -162.58009888 196.56601562 -163.1081543 195.421875 C-165.58488323 190.01512127 -167.94439592 184.58237579 -170 179 C-170.26296875 178.32710937 -170.5259375 177.65421875 -170.796875 176.9609375 C-182.68290824 144.57756122 -178.03702442 105.80169224 -164.1875 74.875 C-159.80275595 65.49178238 -154.31408986 57.18512012 -148 49 C-147.26136719 48.03707031 -146.52273437 47.07414062 -145.76171875 46.08203125 C-142.39785543 41.7932639 -139.00455723 37.71154085 -135 34 C-134.43667969 33.45472656 -133.87335938 32.90945312 -133.29296875 32.34765625 C-116.83273636 16.95749633 -97.45773126 6.50086164 -76 0 C-75.01628418 -0.31759277 -75.01628418 -0.31759277 -74.01269531 -0.64160156 C-51.88395074 -7.5506752 -22.02244114 -6.91468288 0 0 Z M-140.30395508 45.65356445 C-164.24321447 73.27643672 -174.57168888 107.82308994 -173 144 C-172.61877931 148.74619763 -171.9130323 153.32928561 -171 158 C-170.8870459 158.65822754 -170.7740918 159.31645508 -170.65771484 159.99462891 C-166.60264121 183.54879824 -155.69573024 205.0781249 -140 223 C-139.35417969 223.77859375 -138.70835937 224.5571875 -138.04296875 225.359375 C-132.96047754 231.36313243 -127.22661177 236.2148915 -121 241 C-120.10023437 241.69222656 -119.20046875 242.38445312 -118.2734375 243.09765625 C-89.43882494 264.66129302 -54.22845619 272.80161229 -18.58496094 268.59716797 C-6.30370483 266.62251228 5.63962956 263.05262935 17 258 C17.6604834 257.70754395 18.3209668 257.41508789 19.00146484 257.11376953 C51.18304612 242.57394484 75.10347797 215.90061752 88.46484375 183.44140625 C101.12722417 149.53393771 100.66283424 111.57282139 85.76953125 78.44042969 C81.8632541 70.11126023 77.49343334 62.39841426 72 55 C71.4225 54.20078125 70.845 53.4015625 70.25 52.578125 C48.41767799 23.78204511 16.02996024 5.11217928 -19.66455078 -0.22680664 C-65.50918522 -6.07582026 -109.59922545 11.41723245 -140.30395508 45.65356445 Z " fill="#2DAC49" transform="translate(179,7)"/>
<path d="M0 0 C1.29654555 0.36705114 2.59342077 0.73293979 3.890625 1.09765625 C13.81902615 4.11090557 24.69279042 8.31481101 33.11132812 14.56835938 C40.94060614 20.13804829 48.67537498 19.76852611 57.875 19.625 C75.29700596 19.43534176 89.88223995 22.4652515 103 35 C112.01733402 44.9871617 118.32883144 57.11863741 118.26742554 70.74638367 C118.27195665 71.49527149 118.27648776 72.2441593 118.28115618 73.01574069 C118.29375044 75.50884871 118.29218304 78.00173687 118.29052734 80.49487305 C118.2965158 82.28922301 118.30332208 84.0835704 118.31088257 85.87791443 C118.32851982 90.74180072 118.33323706 95.60561659 118.33451414 100.46953177 C118.33593786 103.51248448 118.3402117 106.55541941 118.34550858 109.59836769 C118.36400301 120.22631589 118.37218013 130.85421398 118.37060547 141.48217773 C118.369405 151.36886435 118.39049025 161.25533234 118.4220928 171.14196366 C118.44830085 179.64584171 118.45897083 188.14964856 118.45769465 196.65356666 C118.45718625 201.7255048 118.46280171 206.79724865 118.48405075 211.86914635 C118.50350894 216.64385093 118.50350603 221.41817746 118.48901749 226.19289589 C118.4869375 227.93749167 118.49158155 229.68211159 118.5037384 231.42666626 C118.58211236 243.46073129 117.62009538 254.12702522 110.875 264.5625 C110.37742187 265.34753906 109.87984375 266.13257813 109.3671875 266.94140625 C108.24654672 268.62877108 107.12359804 270.31460294 106 272 C105.34 272 104.68 272 104 272 C103.34 273.32 102.68 274.64 102 276 C101.34 276 100.68 276 100 276 C100 276.66 100 277.32 100 278 C98.05078125 279.55078125 98.05078125 279.55078125 95.3125 281.3125 C94.44238281 281.88613281 93.57226562 282.45976562 92.67578125 283.05078125 C80.871609 289.63131674 70.86308283 290.73073713 57.65625 290.64697266 C55.84292731 290.65376214 54.02961153 290.66267268 52.21630859 290.67352295 C47.3277571 290.6961648 42.43973784 290.68754289 37.55117798 290.67162752 C32.41366231 290.65888968 27.27618951 290.67073039 22.13867188 290.67855835 C13.51424046 290.68763207 4.89002375 290.67572694 -3.734375 290.65185547 C-13.67805439 290.62464865 -23.62122102 290.63346443 -33.564888 290.6609875 C-42.13178111 290.68374263 -50.69852067 290.68684742 -59.26543427 290.67379415 C-64.36918023 290.66603476 -69.47268589 290.66486071 -74.57641602 290.68147659 C-79.3767677 290.69601566 -84.17646405 290.68572878 -88.97674561 290.65700531 C-90.72897254 290.65044459 -92.4812555 290.65220526 -94.23345947 290.66331863 C-107.34454486 290.73875213 -117.79249572 288.88559786 -129.0625 281.5 C-129.91972656 280.9534375 -130.77695313 280.406875 -131.66015625 279.84375 C-134.24848623 277.80419783 -135.98848688 275.60359593 -138 273 C-139.24523437 271.82050781 -139.24523437 271.82050781 -140.515625 270.6171875 C-143.33098243 267.65132354 -144.93990061 264.78524523 -146.75 261.125 C-147.63945312 259.36542969 -147.63945312 259.36542969 -148.546875 257.5703125 C-150.00657619 253.98384238 -150.48386293 250.81367945 -151 247 C-151.66 246.67 -152.32 246.34 -153 246 C-152.97381592 245.03698975 -152.94763184 244.07397949 -152.9206543 243.08178711 C-152.8296404 239.48323113 -152.77256777 235.88477525 -152.7253418 232.28540039 C-152.70031311 230.73249155 -152.66627869 229.17969916 -152.62280273 227.62719727 C-151.916807 216.76590673 -151.916807 216.76590673 -156.64331055 207.48120117 C-159.19954973 204.69036023 -160.51050666 201.10427957 -162.0625 197.6875 C-162.58009888 196.56601562 -162.58009888 196.56601562 -163.1081543 195.421875 C-165.58488323 190.01512127 -167.94439592 184.58237579 -170 179 C-170.26296875 178.32710937 -170.5259375 177.65421875 -170.796875 176.9609375 C-182.68290824 144.57756122 -178.03702442 105.80169224 -164.1875 74.875 C-159.80275595 65.49178238 -154.31408986 57.18512012 -148 49 C-147.26136719 48.03707031 -146.52273437 47.07414062 -145.76171875 46.08203125 C-142.39785543 41.7932639 -139.00455723 37.71154085 -135 34 C-134.43667969 33.45472656 -133.87335938 32.90945312 -133.29296875 32.34765625 C-116.83273636 16.95749633 -97.45773126 6.50086164 -76 0 C-75.01628418 -0.31759277 -75.01628418 -0.31759277 -74.01269531 -0.64160156 C-51.88395074 -7.5506752 -22.02244114 -6.91468288 0 0 Z M-140.30395508 45.65356445 C-164.24321447 73.27643672 -174.57168888 107.82308994 -173 144 C-172.61877931 148.74619763 -171.9130323 153.32928561 -171 158 C-170.8870459 158.65822754 -170.7740918 159.31645508 -170.65771484 159.99462891 C-168.0400855 175.19930592 -163.09610129 190.68348576 -153.5 202.9375 C-148.33119913 210.67540899 -149.1561694 219.85166431 -149.2109375 228.85131836 C-149.298301 245.73103765 -145.35604514 260.30223849 -133.49609375 272.7421875 C-119.00994375 285.84546559 -102.85150759 287.30731429 -84.22265625 287.2746582 C-82.56549858 287.27901469 -80.90834292 287.28420094 -79.25119019 287.29014587 C-74.78427234 287.30344395 -70.31743958 287.30412505 -65.85050583 287.30158257 C-62.10812364 287.30050694 -58.36575826 287.3054111 -54.62337971 287.310188 C-45.78959692 287.32125061 -36.95585666 287.32173842 -28.12207031 287.31567383 C-19.03567475 287.30963144 -9.94943394 287.32195927 -0.86306477 287.3432439 C6.96576003 287.36090241 14.79453575 287.36685471 22.62337971 287.36360615 C27.28720123 287.36180049 31.95091225 287.36435777 36.61471558 287.37832069 C41.00121925 287.39096448 45.38748269 287.3888935 49.773983 287.37590981 C51.37506062 287.37355897 52.9761555 287.37622458 54.57721329 287.38453293 C71.12645315 287.4641597 86.77470478 284.63150275 99.2578125 272.84765625 C109.73801696 261.73299995 115.11301107 248.14933308 115.13371277 232.89190674 C115.13597833 232.19963195 115.13824388 231.50735715 115.14057809 230.79410434 C115.14688118 228.48674244 115.14609111 226.17943984 115.14526367 223.87207031 C115.1482575 222.21255416 115.15166055 220.55303871 115.15544128 218.89352417 C115.16426357 214.39334782 115.16661868 209.89319049 115.16725707 205.39300632 C115.16796868 202.57839575 115.17010513 199.76378998 115.17275429 196.9491806 C115.18200248 187.1210652 115.18608991 177.29296336 115.18530273 167.46484375 C115.18470237 158.31835736 115.19524743 149.17193003 115.2110464 140.02545857 C115.2241443 132.16112468 115.22948567 124.29681003 115.22884732 116.43246531 C115.22859296 111.74069437 115.23140999 107.04897591 115.24202538 102.35721588 C115.25174404 97.94129838 115.25175981 93.52548313 115.24450874 89.10956192 C115.24346751 87.49474818 115.24579819 85.87992794 115.2518692 84.26512527 C115.31561751 66.12457868 112.50768231 51.90808232 100 38 C90.31166557 29.22538573 78.63202147 23.83006623 65.55859375 23.9296875 C64.07225396 23.92109456 62.58592411 23.91061541 61.09960938 23.8984375 C58.77780528 23.88184796 56.45822201 23.87477134 54.13647461 23.90039062 C43.2880862 24.00265717 36.85922774 22.76984848 28 16 C-27.90965213 -16.26371295 -98.0514316 -1.45876772 -140.30395508 45.65356445 Z " fill="#FCFBFA" transform="translate(179,7)"/>
<path d="M0 0 C4.79514207 2.18453968 9.00445789 5.99556273 11.375 10.7578125 C13.55008797 18.5609406 12.93492568 27.03639345 9.12109375 34.17578125 C8.75113281 34.77777344 8.38117188 35.37976563 8 36 C7.443125 36.9075 6.88625 37.815 6.3125 38.75 C0.9373473 43.9798783 -4.06687847 46.31897019 -11.625 46.5625 C-17.20768302 46.35961234 -20.54325798 45.31664523 -25 42 C-25.13277344 42.95261719 -25.26554687 43.90523437 -25.40234375 44.88671875 C-25.57894531 46.14097656 -25.75554687 47.39523438 -25.9375 48.6875 C-26.11152344 49.92886719 -26.28554687 51.17023438 -26.46484375 52.44921875 C-26.89641516 55.31271079 -27.4320807 58.16040352 -28 61 C-34.27 61 -40.54 61 -47 61 C-45.42641684 49.88173213 -43.27367886 38.90869919 -41.05883789 27.90307617 C-40.43135639 24.7819413 -39.8101467 21.65960045 -39.18945312 18.53710938 C-38.79203724 16.55200911 -38.39426413 14.56698032 -37.99609375 12.58203125 C-37.81066513 11.64881546 -37.62523651 10.71559967 -37.43418884 9.75410461 C-37.26053299 8.89528183 -37.08687714 8.03645905 -36.90795898 7.15161133 C-36.75632797 6.39584305 -36.60469696 5.64007477 -36.44847107 4.86140442 C-36 3 -36 3 -35 1 C-29.39 1 -23.78 1 -18 1 C-17.67 1.66 -17.34 2.32 -17 3 C-15.94232422 2.27490234 -15.94232422 2.27490234 -14.86328125 1.53515625 C-10.04301944 -1.0492406 -5.32346502 -0.84236411 0 0 Z " fill="#5AB048" transform="translate(224,150)"/>
<path d="M0 0 C4.33750635 -0.10022677 8.67436737 -0.1720945 13.01269531 -0.21972656 C14.48286709 -0.23961976 15.95296215 -0.26674472 17.42285156 -0.30175781 C33.8928439 -0.68373581 47.78373809 3.43388616 60 15 C69.54294824 26.64301452 74.13143292 38.17126219 74.12025452 53.29563904 C74.12110894 53.99582391 74.12196337 54.69600879 74.12284368 55.41741139 C74.1244804 57.74501644 74.11900697 60.07254815 74.11352539 62.40014648 C74.1132431 64.07603453 74.11340207 65.7519227 74.1139679 67.42781067 C74.11425424 71.96445244 74.10838377 76.50106766 74.10139394 81.03770328 C74.09513335 85.78360277 74.09455446 90.5295029 74.09336853 95.27540588 C74.09026319 104.25666793 74.08206055 113.23791777 74.07201904 122.21917444 C74.06083315 132.44646821 74.05534121 142.67376257 74.05032361 152.90106094 C74.03987727 173.93404743 74.02229327 194.96702295 74 216 C73.67 216 73.34 216 73 216 C73.0031424 215.27830974 73.00628481 214.55661947 73.00952244 213.81305981 C73.0830321 196.21734725 73.10657904 178.62226941 73.07515812 161.02643108 C73.06115583 152.51697956 73.06379374 144.00815212 73.10620117 135.4987793 C73.1431398 128.0781611 73.14824937 120.65830407 73.11582941 113.23765308 C73.09976994 109.31153813 73.09917947 105.38684995 73.13676643 101.46085167 C73.17171776 97.75745661 73.1637787 94.05651608 73.12437057 90.35318947 C73.11393506 88.36209927 73.14768946 86.37092705 73.1832428 84.38012695 C73.0164999 74.67426065 69.76620813 69.77800245 63 63 C62.04475816 61.94605038 61.0901625 60.89151402 60.13671875 59.8359375 C49.78044059 49.16199744 49.78044059 49.16199744 37 42 C35.45703125 39.84765625 35.45703125 39.84765625 33.8125 37.0625 C25.13365569 23.05390898 13.52704264 10.46892985 0 1 C0 0.67 0 0.34 0 0 Z " fill="#55B84E" transform="translate(220,31)"/>
<path d="M0 0 C2.3125 1.5625 2.3125 1.5625 3.3125 2.5625 C3.6425 1.5725 3.9725 0.5825 4.3125 -0.4375 C10.2525 -0.4375 16.1925 -0.4375 22.3125 -0.4375 C22.3125 4.94092397 21.92515724 9.41678396 20.81640625 14.578125 C20.66340561 15.31577087 20.51040497 16.05341675 20.35276794 16.81341553 C20.03064812 18.36033661 19.70524777 19.9065779 19.37670898 21.45214844 C18.87377464 23.81826488 18.38034924 26.18620877 17.88867188 28.5546875 C17.57346164 30.06261402 17.25772494 31.57043061 16.94140625 33.078125 C16.79345108 33.78439026 16.64549591 34.49065552 16.49305725 35.21832275 C15.88721492 38.06386728 15.23352192 40.79943425 14.3125 43.5625 C8.7025 43.5625 3.0925 43.5625 -2.6875 43.5625 C-3.0175 42.9025 -3.3475 42.2425 -3.6875 41.5625 C-4.47125 42.0575 -5.255 42.5525 -6.0625 43.0625 C-11.24915705 45.20870292 -16.29891062 45.66150196 -21.7109375 43.90625 C-27.23746281 41.1067874 -30.75096183 36.3721145 -32.6875 30.5625 C-33.50079164 21.6279104 -33.33606513 13.86018644 -27.6875 6.5625 C-19.71666154 -1.05935253 -10.72632601 -4.18144912 0 0 Z " fill="#95753A" transform="translate(157.6875,151.4375)"/>
<path d="M0 0 C3.28560468 3.23932855 6.43760972 6.5494194 9.5 10 C13.30291634 14.2499479 17.16641912 18.34799125 21.40625 22.16796875 C24.38203727 25.41713406 25.94443702 28.53138401 27.75 32.5 C32.89808002 43.22475852 39.51435906 52.43845397 47.1875 61.5 C47.67444336 62.07572754 48.16138672 62.65145508 48.66308594 63.24462891 C49.13907227 63.79296387 49.61505859 64.34129883 50.10546875 64.90625 C50.51949951 65.38384766 50.93353027 65.86144531 51.36010742 66.35351562 C51.90127197 66.89685547 52.44243652 67.44019531 53 68 C53.70873764 68.84535812 54.41747528 69.69071625 55.14768982 70.56169128 C60.39204821 74.8496679 67.85610526 73.69915738 74.27685547 73.65942383 C75.84423598 73.66788098 77.41160598 73.6785269 78.97895813 73.69119263 C83.22448206 73.71931583 87.46950034 73.71687156 91.71508932 73.70889878 C96.15544161 73.70577201 100.59563335 73.73081305 105.03591919 73.75285339 C113.43995729 73.7902954 121.84383358 73.80244148 130.24794686 73.8054778 C139.81751028 73.81016846 149.38691159 73.84309202 158.95640349 73.87837565 C178.63758389 73.95031013 198.31869831 73.98682693 218 74 C218 74.33 218 74.66 218 75 C196.09383702 75.07025201 174.18769277 75.12306724 152.28143978 75.15543652 C142.10873066 75.17086928 131.93609177 75.19188973 121.76342773 75.22631836 C112.89126125 75.25633109 104.01914565 75.27560106 95.1469298 75.28226548 C90.45430831 75.28615772 85.76183234 75.29522919 81.06925774 75.31719017 C76.64107185 75.33774346 72.21308967 75.34379625 67.78486061 75.33932304 C66.17052982 75.3401399 64.55619131 75.34599229 62.94190216 75.35761642 C44.11352106 75.4864007 28.43791525 72.80477084 14.22265625 59.35546875 C1.71685386 46.10239522 -0.36208398 30.90230743 -0.125 13.3125 C-0.11597656 12.02666016 -0.10695313 10.74082031 -0.09765625 9.41601562 C-0.0743189 6.27714268 -0.04158033 3.13867524 0 0 Z " fill="#33BFB7" transform="translate(30,219)"/>
<path d="M0 0 C6.27 0 12.54 0 19 0 C18.34 4.29 17.68 8.58 17 13 C19.64 13 22.28 13 25 13 C24.85795259 14.58367747 24.71119847 16.16693318 24.5625 17.75 C24.48128906 18.63171875 24.40007812 19.5134375 24.31640625 20.421875 C24 23 24 23 23 27 C19.7 27 16.4 27 13 27 C12.67 31.62 12.34 36.24 12 41 C14.31 41 16.62 41 19 41 C19.66 45.29 20.32 49.58 21 54 C14.24743157 56.70102737 6.72988459 57.44632835 -0.36328125 55.27734375 C-4.13589197 53.28198005 -6.53131494 50.974089 -8 47 C-8.75729418 40.14770908 -7.58551056 33.65348184 -6 27 C-7.65 27 -9.3 27 -11 27 C-10.03644647 17.58997722 -10.03644647 17.58997722 -9 13 C-6.69 13 -4.38 13 -2 13 C-1.93941406 12.39671875 -1.87882812 11.7934375 -1.81640625 11.171875 C-1.73261719 10.37265625 -1.64882812 9.5734375 -1.5625 8.75 C-1.48128906 7.96109375 -1.40007812 7.1721875 -1.31640625 6.359375 C-1 4 -1 4 0 0 Z " fill="#EB2129" transform="translate(99,140)"/>
<path d="M0 0 C1.06347656 -0.01417969 2.12695312 -0.02835938 3.22265625 -0.04296875 C5.9375 0.1875 5.9375 0.1875 7.9375 2.1875 C7.23085684 4.15407289 6.49630225 6.11063258 5.75 8.0625 C5.14091797 9.69832031 5.14091797 9.69832031 4.51953125 11.3671875 C2.64388184 14.71093781 1.45670857 15.00099105 -2.0625 16.1875 C-2.99499614 18.98498841 -3.19726152 20.73070881 -3.1875 23.625 C-3.19007813 24.38683594 -3.19265625 25.14867187 -3.1953125 25.93359375 C-3.15586923 28.17305778 -3.15586923 28.17305778 -2.4375 30.16015625 C-1.91494804 32.98520276 -2.7869231 34.58481571 -3.9375 37.1875 C-5.24124573 40.17790978 -6.36795339 42.9955411 -7.0625 46.1875 C-12.31840519 45.8120782 -15.59159274 44.06789631 -19.0625 40.1875 C-23.44376565 34.58921611 -23.73734107 28.59496572 -23.5 21.66015625 C-22.52813249 13.94595791 -19.45071889 8.97088928 -13.4375 4.125 C-8.90812039 0.84004039 -5.57921526 0.0338956 0 0 Z " fill="#C4452F" transform="translate(148.0625,149.8125)"/>
<path d="M0 0 C3.71268094 1.54127351 5.98115698 3.80843234 8.75 6.6875 C11.76713884 9.77090104 14.78141718 12.76141526 18.0625 15.5625 C21.8375934 18.79069858 25.29450626 22.27799264 28.78125 25.8125 C31.37640274 28.37110129 34.08419661 30.74203225 36.89076328 33.06489658 C39 35 39 35 40.77805233 37.2713995 C43.9844198 41.2043452 46.49133106 43.64264151 51.5144825 44.83247566 C55.87891684 45.14775828 60.16385673 45.18076152 64.53540039 45.11352539 C66.20175273 45.12085854 67.86809162 45.1321448 69.53439331 45.14706421 C74.03642925 45.17626052 78.53663869 45.15045902 83.03856206 45.11447453 C87.75116341 45.08625979 92.46351765 45.10904579 97.1761322 45.12632751 C106.09029249 45.15131604 115.00373565 45.13070882 123.91782993 45.09355396 C134.07027337 45.05346992 144.2224628 45.06446794 154.37495053 45.07967007 C175.25018155 45.10978831 196.12490337 45.07603937 217 45 C217 45.33 217 45.66 217 46 C195.09383702 46.07025201 173.18769277 46.12306724 151.28143978 46.15543652 C141.10873066 46.17086928 130.93609177 46.19188973 120.76342773 46.22631836 C111.89126125 46.25633109 103.01914565 46.27560106 94.1469298 46.28226548 C89.45430831 46.28615772 84.76183234 46.29522919 80.06925774 46.31719017 C75.64107185 46.33774346 71.21308967 46.34379625 66.78486061 46.33932304 C65.17052982 46.3401399 63.55619131 46.34599229 61.94190216 46.35761642 C43.11352106 46.4864007 27.43791525 43.80477084 13.22265625 30.35546875 C5.03660796 21.68027171 0.49663465 11.89439978 0 0 Z " fill="#3BC2BE" transform="translate(31,248)"/>
<path d="M0 0 C2.97 0 5.94 0 9 0 C9.66 0.66 10.32 1.32 11 2 C10.29335684 3.96657289 9.55880225 5.92313258 8.8125 7.875 C8.20341797 9.51082031 8.20341797 9.51082031 7.58203125 11.1796875 C5.70638184 14.52343781 4.51920857 14.81349105 1 16 C0.06750386 18.79748841 -0.13476152 20.54320881 -0.125 23.4375 C-0.12757813 24.19933594 -0.13015625 24.96117187 -0.1328125 25.74609375 C-0.09336923 27.98555778 -0.09336923 27.98555778 0.625 29.97265625 C1.14755196 32.79770276 0.2755769 34.39731571 -0.875 37 C-2.17874573 39.99040978 -3.30545339 42.8080411 -4 46 C-9.2676092 45.52112644 -9.96314468 45.03685532 -14 41 C-9.38 27.47 -4.76 13.94 0 0 Z " fill="#B75433" transform="translate(145,150)"/>
<path d="M0 0 C1.22177552 3.66532655 0.35957187 4.89864988 -1.29858398 8.24145508 C-1.65380127 8.9248999 -2.00901855 9.60834473 -2.375 10.3125 C-2.73859619 11.02237061 -3.10219238 11.73224121 -3.47680664 12.46362305 C-20.17023267 44.45074896 -45.76444348 66.84311541 -79.0859375 80.1015625 C-82 81 -82 81 -84 80 C-82.68 78.68 -81.36 77.36 -80 76 C-80.66 75.34 -81.32 74.68 -82 74 C-81.44763672 73.83508057 -80.89527344 73.67016113 -80.32617188 73.50024414 C-62.694257 68.15187228 -47.74057183 61.53525851 -34 49 C-33.22269531 48.30390625 -32.44539063 47.6078125 -31.64453125 46.890625 C-20.19226592 36.08883257 -11.46508299 21.52335909 -6.5234375 6.58203125 C-5.76933594 4.80892578 -5.76933594 4.80892578 -5 3 C-2.96728516 2.40112305 -2.96728516 2.40112305 -1 2 C-0.67 1.34 -0.34 0.68 0 0 Z " fill="#A12F2C" transform="translate(266,189)"/>
<path d="M0 0 C3.3125 0.9375 3.3125 0.9375 5.3125 2.9375 C5.578125 4.9609375 5.578125 4.9609375 5.5625 7.3125 C5.56765625 8.08335937 5.5728125 8.85421875 5.578125 9.6484375 C5.28484684 12.1758052 4.65772026 13.78704227 3.3125 15.9375 C1.09954384 17.04397808 -0.23422699 17.13338368 -2.6875 17.1875 C-3.38875 17.21328125 -4.09 17.2390625 -4.8125 17.265625 C-5.43125 17.15734375 -6.05 17.0490625 -6.6875 16.9375 C-9.37193395 12.91084907 -9.48129975 9.66722349 -8.6875 4.9375 C-6.00694991 0.87606048 -4.91071877 -0.08323252 0 0 Z " fill="#F8FCF8" transform="translate(211.6875,164.0625)"/>
<path d="M0 0 C2 2 2 2 2.3125 5.8125 C2.22077227 10.01668784 1.0233343 12.9766657 -2 16 C-7.8410596 16.37086093 -7.8410596 16.37086093 -10 16 C-12.68721591 11.96917614 -12.66627096 8.73223222 -12 4 C-9.05531891 -1.03049686 -5.29584308 -0.51250094 0 0 Z " fill="#FDFAFA" transform="translate(156,165)"/>
<path d="M0 0 C5.03150155 4.87903181 9.75018254 10.04711458 14 15.625 C15.76261168 17.71810137 17.36060878 19.09106528 19.5 20.75 C23.54450591 24.08997907 25.40947438 28.06047943 27 33 C27 33.66 27 34.32 27 35 C26.34 35 25.68 35 25 35 C23.80078125 33.7421875 23.80078125 33.7421875 22.3125 31.875 C16.95742062 25.54213542 10.71454354 20.08805296 4.60644531 14.4987793 C3.81125488 13.75688354 3.81125488 13.75688354 3 13 C2.4423999 12.49275391 1.8847998 11.98550781 1.31030273 11.46289062 C-0.61695619 9.31119779 -0.29755435 7.63722834 -0.1875 4.8125 C-0.16042969 3.91144531 -0.13335938 3.01039063 -0.10546875 2.08203125 C-0.07066406 1.39496094 -0.03585938 0.70789063 0 0 Z " fill="#39B9A3" transform="translate(31,220)"/>
<path d="M0 0 C0.66 0.33 1.32 0.66 2 1 C-0.97 9.91 -3.94 18.82 -7 28 C-7.99 28 -8.98 28 -10 28 C-10.59140232 18.87926199 -10.49400918 11.6025208 -5 4 C-2.1875 1.375 -2.1875 1.375 0 0 Z " fill="#D03D31" transform="translate(135,154)"/>
<path d="M0 0 C0.66 4.29 1.32 8.58 2 13 C-3 15 -3 15 -7 15 C-6.49202991 10.6822542 -5.80317221 6.96697886 -4 3 C-4.66 2.34 -5.32 1.68 -6 1 C-3.92446352 0.4465236 -2.15634036 0 0 0 Z " fill="#DB3935" transform="translate(118,181)"/>
<path d="M0 0 C1.32 0 2.64 0 4 0 C3.85795259 1.58367747 3.71119847 3.16693318 3.5625 4.75 C3.48128906 5.63171875 3.40007812 6.5134375 3.31640625 7.421875 C3 10 3 10 2 14 C-1.3 14 -4.6 14 -8 14 C-6.68 13.67 -5.36 13.34 -4 13 C-3.79503906 12.22914063 -3.59007813 11.45828125 -3.37890625 10.6640625 C-3.10949219 9.66117188 -2.84007813 8.65828125 -2.5625 7.625 C-2.29566406 6.62726563 -2.02882813 5.62953125 -1.75390625 4.6015625 C-1 2 -1 2 0 0 Z " fill="#E43436" transform="translate(120,153)"/>
</svg>
