<?xml version="1.0" encoding="utf-8"?>
<!-- Generator: Adobe Illustrator 24.2.1, SVG Export Plug-In . SVG Version: 6.00 Build 0)  -->
<svg version="1.1" id="Layer_1" xmlns="http://www.w3.org/2000/svg" xmlns:xlink="http://www.w3.org/1999/xlink" x="0px" y="0px"
	 viewBox="0 0 102.4 89" style="enable-background:new 0 0 102.4 89;" xml:space="preserve">
<style type="text/css">
	.st0{fill:#FFD603;}
	.st1{fill:#0054A5;}
</style>
<path class="st0" d="M53,88.2c-3.2,0.1-6.4-0.1-9.6-0.4c-3.3-0.3-6.5-0.8-9.8-1.5c-7.1-1.7-13.7-4.6-19.2-9.5
	c-4.6-4-7.8-8.9-10-14.6c-1.6-4.1-2.5-8.3-3.1-12.7c-0.5-3.8-0.5-7.6-0.5-11.4c0-2.8,2.4-5.1,4.9-5.2c0.4,0,0.9-0.1,1.3-0.1
	c3.6,0,7.3,0,10.9,0c0.7,0,1.3,0,2,0.2c2.5,0.7,4,2.7,4.1,5.6c0,1.8,0,3.6,0,5.3c0,3.8,0.8,7.4,2.6,10.8c2.1,4.1,5.4,7,9.4,9.1
	c3.4,1.8,7.1,2.8,11,3.3c1.8,0.2,3.6,0.3,5.5,0.3c0.2,0.1,0.4,0.1,0.6,0.2c4.7,0.8,8.2,4.5,8.7,9.1c0.5,4.8-2.5,9.4-7,10.9
	C54.1,88,53.5,88,53,88.2z"/>
<path class="st1" d="M53,88.2c0.5-0.3,1.1-0.3,1.7-0.5c4.6-1.5,7.6-6.1,7-10.9c-0.5-4.7-4-8.3-8.7-9.1c-0.2,0-0.4,0-0.6-0.2
	c5.5-0.1,10.6-1.5,15.3-4.2c6.1-3.5,9.6-8.8,10.7-15.7c0.2-1.4,0.3-2.7,0.3-4.1c0-1.7,0-3.4,0-5.2c0-2.5,1.7-4.6,4.1-5.3
	c0.3-0.1,0.7-0.1,1.1-0.1c4.3,0,8.5-0.1,12.8,0c2.3,0,3.8,1.3,4.7,3.4c0.3,0.6,0.4,1.3,0.4,1.9c0,3.2,0,6.5-0.3,9.7
	c-0.7,6.8-2.3,13.2-5.6,19.2c-4,7.2-9.9,12.4-17.3,15.8c-3,1.4-6.2,2.4-9.4,3.2c-5,1.3-10.1,1.9-15.3,2C53.6,88.3,53.3,88.3,53,88.2
	z"/>
<path class="st1" d="M76.6,13.2c0-7,5.7-12.6,12.7-12.5c7.1,0.1,12.6,5.9,12.5,12.7s-5.7,12.4-12.7,12.4
	C82.2,25.8,76.6,20.2,76.6,13.2z"/>
<path class="st0" d="M26,13.2c0,6.6-5.3,12.6-12.6,12.6C6,25.8,0.8,19.7,0.8,13.2c0-6.6,5.3-12.6,12.6-12.6C20.4,0.6,26,6.3,26,13.2
	z"/>
</svg>
