<?xml version="1.0" encoding="UTF-8"?>
<svg id="Layer_1" xmlns="http://www.w3.org/2000/svg" version="1.1" viewBox="0 0 185.22 54.52">
  <!-- Generator: Adobe Illustrator 30.2.1, SVG Export Plug-In . SVG Version: 2.1.1 Build 1)  -->
  <defs>
    <style>
      .st0 {
        fill: #6b9dba;
      }

      .st1 {
        fill: #ea001b;
      }

      .st2 {
        fill: #a4cbe5;
      }

      .st3 {
        fill: #ee3147;
      }

      .st4 {
        fill: #f69d1b;
      }

      .st5 {
        fill: #fe5a00;
      }

      .st6 {
        fill: #f8b552;
      }

      .st7 {
        fill: #a8cce6;
      }

      .st8 {
        fill: #f7b048;
      }

      .st9 {
        fill: #d4ab6d;
      }

      .st10 {
        fill: #faa841;
      }

      .st11 {
        fill: #f9c980;
      }

      .st12 {
        fill: #ee394e;
      }

      .st13 {
        fill: none;
        stroke: #435caa;
        stroke-miterlimit: 10;
        stroke-width: .75px;
      }

      .st14 {
        fill: #006cb5;
      }
    </style>
  </defs>
  <line class="st13" x1="117.83" y1="1.54" x2="117.83" y2="52.16"/>
  <g>
    <g>
      <path class="st14" d="M77.92,10.06l-1.03,6.13c-2.35-1.21-5.34-1.71-7.95-1.67-1.43.07-3.39.36-4.38,1.46-.75.82-.78,2-.07,2.85,1.85,2.17,6.77,3.46,9.91,6.73,1.28,1.35,2.14,2.96,2.35,4.81.18,1.57,0,3.14-.46,4.63s-1.25,2.74-2.32,3.85c-2.17,2.28-5.27,3.6-8.34,4.28-4.77,1-10.58.71-15.07-1.43l1.39-7.98c2.46,1.85,6.45,2.53,9.48,2.49,1.57-.07,3.31-.29,4.63-1.25s1.5-2.53.57-3.74c-2.81-3.74-13.86-4.6-12.01-14.68.36-1.92,1.25-3.63,2.6-5.02.53-.53,1.1-.96,1.64-1.43h19.06v-.04Z"/>
      <g>
        <path class="st14" d="M102.07,10.06l6.88,33h-8.48l-1.07-5.27h-11.69l-1.92,5.27h-9.66l13.79-32.82v-.18h12.15ZM95.09,17.54l-4.74,13.01h7.52l-2.67-13.01v-.18c0,.07,0,.11-.07.18h-.04Z"/>
        <path class="st7" d="M95.2,17.51h-.11s0-.11.07-.18c.07.04,0,.11,0,.18h.04Z"/>
      </g>
    </g>
    <g>
      <path class="st9" d="M18.09,26.67s-.07-.14-.11-.21h.07v.21h.04Z"/>
      <g>
        <polygon class="st14" points="50.3 10.06 44.96 43.06 35.69 43.06 41.07 10.06 50.3 10.06"/>
        <g>
          <path class="st14" d="M36.9,10.06l-13.68,33h-9.62L5.65,12.41h.25s.14.07.21.11c4.99,2.96,8.98,7.34,11.44,12.58.21.43.39.86.43,1.32.04.04.07.11.11.21h.11l.82,4.1c.14.39.18.75.11,1.07h.07s-.04-.18,0-.29c2.6-7.16,5.17-14.32,7.77-21.45,0,0,9.94,0,9.94,0Z"/>
          <path class="st10" d="M14.81,10.06c.11.29.18.53.25.86l2.99,15.5s0,.07-.07,0c-.21-.53-.43-1.07-.68-1.6-2.6-5.31-6.59-9.48-11.65-12.47l-.07-.07c-.78-.46-1.57-.89-2.39-1.32-.61-.29-1.14-.61-1.75-.82-.07,0-.11-.07-.11-.11h13.5l-.04.04Z"/>
          <path class="st0" d="M5.65,12.38h0s-.07-.04-.04-.07c0,0,.07,0,.07.07h-.04Z"/>
          <path class="st2" d="M19.16,31.83h.07v.07s-.04.04-.04,0v-.07h-.04Z"/>
        </g>
      </g>
    </g>
  </g>
  <g>
    <path class="st6" d="M164.15,5.44c-.07.07-.23.07-.3,0h.3Z"/>
    <g>
      <g>
        <path class="st4" d="M163.85,5.44c.1.04.2.04.3,0h1.29c.07.02.15.03.22.04.04-.04.16-.03.22,0,3.25-.04,6.65,1.36,9.25,3.32,3.95,2.98,6.58,7.68,6.74,12.65.06,1.78.01,3.44-.42,5.18-1.5,6.05-6.18,10.75-12.14,12.43-1.24.35-2.3.45-3.57.55-1.62.13-3.7-.12-5.34-.56-2.14-.57-4.09-1.53-5.87-2.86-.04-.03-.08-.08-.11-.12s-.06-.09-.09-.14c-.1-.05-.09-.1-.01-.18,7.28-5.79,8.49-16.41,2.74-23.76-.8-1.03-1.62-1.77-2.59-2.64-.08-.07-.14-.17-.19-.26v-.04c.06-.1.13-.19.22-.27.63-.55,1.65-1.12,2.4-1.51,2.13-1.12,4.5-1.8,6.86-1.84h.09Z"/>
        <path class="st5" d="M154.33,35.93h-.04c-3.74-3.05-6.11-7.36-6.45-12.25-.26-3.76.72-7.54,2.85-10.69,1-1.48,2.2-2.81,3.6-3.89,1.83,1.42,3.35,3.26,4.46,5.31,1.5,2.78,2.18,5.92,2,9.07-.27,4.83-2.57,9.3-6.35,12.31-.06.04-.08.08-.07.14Z"/>
      </g>
      <g>
        <path class="st1" d="M142.87,5.44c.08.04.18.04.26,0h1.68c3.31.07,6.74,1.37,9.38,3.48l.09.14s.04.02,0,.04c-.05.09-.11.19-.19.26-.97.87-1.79,1.63-2.6,2.67-5.71,7.32-4.49,17.74,2.61,23.64.08.07.14.17.19.27-.03.05-.06.1-.09.14s-.07.08-.11.12c-2.03,1.53-4.55,2.67-7.05,3.14-6.65,1.27-13.51-1.46-17.4-7.13-1.73-2.52-2.85-5.59-2.91-8.63v-.17c.04-.08.04-.18,0-.26v-1.72c.1-4.12,2.02-8.15,4.93-11.06s6.99-4.83,11.09-4.91h.13Z"/>
        <path class="st3" d="M143.13,5.44c-.05.07-.2.07-.26,0h.26Z"/>
        <path class="st12" d="M126.71,23.4v-.26c.07.05.07.2,0,.26Z"/>
      </g>
    </g>
    <path class="st8" d="M165.66,5.44s.04.03,0,.04c-.07,0-.17.03-.22-.04h.22Z"/>
    <rect class="st11" x="165.66" y="5.44" width=".22" height=".04"/>
    <path d="M133.59,45.32l-.03,2.83h-1.02s-.02-2.72-.02-2.72c0-.32-.14-.63-.41-.8-.4-.25-.95-.2-1.32.12-.19.17-.3.46-.31.72l-.03,2.7h-1.02s0-4.55,0-4.55h1.03s.02.53.02.53c.31-.42.76-.62,1.28-.63.64-.02,1.19.25,1.54.82.58-.94,2.07-1.06,2.84-.41.31.28.55.64.55,1.08l.02,3.17h-1.12s-.02-2.83-.02-2.83c0-.24-.14-.49-.3-.64-.22-.19-.5-.24-.79-.21-.44.03-.9.33-.9.84Z"/>
    <path d="M178.18,47.64c-.33.51-.94.64-1.54.62-1.4-.06-2.32-1.37-2.12-2.72.13-1.1,1.01-1.95,2.11-2.02.61-.04,1.15.17,1.55.62v-2.33c.33-.02.67-.02,1.04,0v6.35s-1.03.01-1.03.01l-.02-.53ZM177.87,46.95c.56-.59.57-1.53.03-2.11-.48-.53-1.37-.55-1.89-.06-.61.58-.61,1.63,0,2.19.53.49,1.35.51,1.86-.02Z"/>
    <path d="M142.31,48.15l-1.03.02c-.04-.19.02-.32,0-.51-.38.45-.86.62-1.39.6-.25,0-.48-.02-.73-.1-.95-.31-1.55-1.2-1.57-2.19-.02-.74.23-1.43.78-1.9.78-.68,2.17-.84,2.89.07l.03-.53h1.01s0,4.54,0,4.54ZM139.85,47.33c.29.04.59-.04.84-.19.51-.32.7-.89.64-1.47-.08-.76-.7-1.29-1.45-1.23-.88.07-1.33.85-1.25,1.63.07.66.53,1.17,1.22,1.27Z"/>
    <path d="M169.07,48.17l-.02-.53c-.17.14-.28.32-.48.42-.79.41-1.96.19-2.58-.49-.92-1.01-.85-2.61.15-3.52.78-.7,2.17-.78,2.9.07v-.53s1,0,1,0v4.56s-.98,0-.98,0ZM168.69,46.98c.63-.62.62-1.7-.06-2.25-.44-.36-1.05-.39-1.51-.14s-.69.75-.7,1.29c0,.75.47,1.36,1.24,1.45.35.04.73-.06,1.03-.35Z"/>
    <path d="M154.45,47.38c.54.04,1.05-.14,1.49-.47l.5.72c-.57.46-1.24.64-1.94.63-1.42,0-2.33-1.1-2.27-2.52.03-.65.27-1.29.79-1.72.84-.71,2.29-.71,3.03.13.56.63.59,1.36.56,2.16h-3.35c.1.61.58,1.02,1.19,1.06ZM155.63,45.45c-.03-.39-.19-.67-.45-.89-.25-.13-.52-.21-.79-.18-.59.07-1,.49-1.07,1.07h2.32Z"/>
    <path d="M147.23,46.7c.04,1.16-1.05,1.54-2.04,1.56-.71.01-1.4-.15-2.01-.57l.49-.78c.57.47,2.09.73,2.49.12.11-.17.07-.37-.11-.46-.68-.36-1.53-.1-2.25-.68-.67-.53-.5-1.53.04-1.95.37-.29.83-.42,1.3-.43.78-.02,1.32.08,2.01.47-.18.29-.29.54-.43.84-.54-.27-1.46-.57-2.04-.26-.11.06-.2.15-.21.25-.12.83,1.14.28,2.2.94.35.22.55.55.56.96Z"/>
    <path d="M151.34,47.06c.1.27.21.56.29.89-.6.32-1.28.41-1.91.22-.46-.13-.76-.55-.84-1.01-.02-.13-.06-.25-.06-.38v-2.22s-.9-.03-.9-.03v-.93s.89,0,.89,0v-1.38s1.03,0,1.03,0v1.38s1.58,0,1.58,0c.02.3.02.6,0,.94h-1.59s.02,2.24.02,2.24c0,.3.28.5.56.52.32.02.61-.05.93-.24Z"/>
    <path d="M161.89,45.61c-.13.82.29,1.64,1.19,1.73.48.05.93-.13,1.34-.42l.47.81c-.46.44-1.03.52-1.61.54-1.39.05-2.43-.97-2.44-2.34,0-1.19.74-2.22,1.96-2.38.77-.1,1.44-.04,2.09.49l-.49.83c-.37-.3-.82-.46-1.27-.42-.67.05-1.15.53-1.26,1.17Z"/>
    <path d="M158.72,48.15c-.35.03-.68.01-1.03.01v-4.55s1.01,0,1.01,0l.03.47c.59-.68.91-.58,1.8-.56-.05.36-.18.64-.27.99l-.6-.09c-.47-.07-.93.33-.93.83l-.02,2.9Z"/>
    <path d="M172.39,45.4l-.02,2.76h-.99s0-4.56,0-4.56h.98s.03.53.03.53c.28-.46.78-.67,1.32-.62.18.02.35-.05.53.06l-.28.93c-.42-.06-.93-.22-1.28.17-.17.19-.28.45-.28.73Z"/>
  </g>
</svg>